PathFileType	4	(X/Y/Z)	69_1_34_p1_0-265.trc
DataRate	CameraRate	NumFrames	NumMarkers	Units	OrigDataRate	OrigDataStartFrame	OrigNumFrames
60.0	60.0	7	27	m	60.0	166	266
Frame#	Time	RHip			RKnee			RAnkle			RBigToe			RSmallToe			RHeel			LHip			LKnee			LAnkle			LBigToe			LSmallToe			LHeel			Neck			Head			Nose			RShoulder			RElbow			RWrist			RThumb			RIndex			RPinky			LShoulder			LElbow			LWrist			LThumb			LIndex			LPinky			
		X1	Y1	Z1	X2	Y2	Z2	X3	Y3	Z3	X4	Y4	Z4	X5	Y5	Z5	X6	Y6	Z6	X7	Y7	Z7	X8	Y8	Z8	X9	Y9	Z9	X10	Y10	Z10	X11	Y11	Z11	X12	Y12	Z12	X13	Y13	Z13	X14	Y14	Z14	X15	Y15	Z15	X16	Y16	Z16	X17	Y17	Z17	X18	Y18	Z18	X19	Y19	Z19	X20	Y20	Z20	X21	Y21	Z21	X22	Y22	Z22	X23	Y23	Z23	X24	Y24	Z24	X25	Y25	Z25	X26	Y26	Z26	X27	Y27	Z27	
166	2.7666666666666666	0.28654869521154175	0.5361785205479606	0.573400170369912	0.2576648468480513	0.5015140698656813	0.9380248294550745	0.23190159893196213	0.5554448691209884	1.318797810116932	0.21024450210325865	0.3302128322688634	1.2679882977601047	0.2541247899386371	0.3780991054034102	1.3036384272615826	0.2340318066069993	0.6587283507817128	1.419216396153908	0.05488230381391868	0.5268465745392176	0.5678835319661747	0.044653323259321184	0.48002782420533996	0.9374434059034461	0.00215374617568056	0.593483446289587	1.372345605356837	0.10225805585732424	0.35575391217430635	1.2880991232421544	0.016302969072519897	0.425468749014963	1.3360424829685462	-0.04106777988024662	0.7033594821201876	1.4587919706447432	0.21520924360532842	0.46349385979337776	0.0279875078347772	0.2575663347395145	0.3875729821102087	-0.21232204792749065	0.24983725725274425	0.3400575911070183	-0.09064743882672606	0.3567945584068659	0.4657255362494262	0.10978277722330368	0.47603003699644963	0.3036215252308101	0.314520065172495	0.4416498048493989	0.07602308042553159	0.20789764140591396	0.4091967966818163	0.0021363126747589245	0.12414694991749159	0.40954977357248684	-0.008765354124001607	0.1424865605138835	0.3796628716824395	0.04274123320507728	0.20894095340808375	0.05464616150798438	0.5016227436371986	0.10834948521794355	-0.05040000266562505	0.5687502048874845	0.3014292502452046	-0.01766409081922354	0.4159460657860804	0.26775851303838094	0.04999512620755399	0.31060807610583896	0.20144553734456136	0.01888609049023067	0.3074597782488464	0.2147131758178573	0.07841017423238819	0.24762580365050915	0.2666042189501629
167	2.783333333333333	0.2870321458936909	0.535696197667204	0.577581893920139	0.25358617747067724	0.4982383928443256	0.9417108155339602	0.2322252060816021	0.5549294323772009	1.318716735191117	0.21041083822731246	0.3304067094594484	1.2679188643558839	0.24877662354843166	0.375816438273941	1.3075292113340624	0.24738913707188998	0.6272035124247688	1.4051902254965116	0.06586160401250266	0.5153533296912318	0.5726648706750417	0.04672044342270893	0.46439616986284304	0.9271529320464076	0.0018286144428420303	0.5938320787032804	1.3726946915844684	0.10227864942026847	0.35752829049562224	1.2931799662356196	0.01604305885672396	0.4260919050071454	1.3364830343604714	-0.04347300846293955	0.7061037814983603	1.4536802601966836	0.2154150438674399	0.4634827338936337	0.02820887221386516	0.2574251734784866	0.38652749622816424	-0.2052075203465693	0.24991119031994682	0.33912339556727916	-0.08083242036299527	0.3495267604126043	0.4640458062172089	0.10675002412132942	0.4833778586300522	0.304693520022584	0.31182356347905194	0.4413473897419508	0.08627193630402455	0.2133839679400811	0.4017994053963122	0.01996359817202084	0.13045017966903955	0.4093665162214262	-0.00865747043732312	0.14539152971171143	0.38206774702117924	0.03307930953744911	0.21160294353789422	0.05497334246989648	0.501711066324537	0.1121876547270969	-0.03703355070158562	0.5493151621091229	0.2890320400806905	-0.01607644434306888	0.40412091774827885	0.2651826876645944	0.023200057297146724	0.34011523765011376	0.21879171434570494	-0.013678683119827	0.3361192814240578	0.22572970818068497	0.0051283412802395675	0.333462784243019	0.2886741964720305
168	2.8	0.28197948592759964	0.5468054048006947	0.5893353547525529	0.254318069089094	0.4984848651550392	0.9503889749799327	0.23219329734194255	0.5569955465258856	1.3241143942462705	0.19539540776857933	0.32565353991475904	1.2647628352377362	0.24154947820150086	0.3631541987288674	1.299863551704944	0.247911044679641	0.6264869903165412	1.4051418353630907	0.06430865670981457	0.528932259310668	0.57652032792299	0.05254445160082404	0.44854224784749375	0.9241837640003533	0.00478233558499686	0.5993782576628246	1.3704624112291868	0.09878191971593056	0.3546605591324657	1.2893832465434867	0.014338623848553734	0.42777740162037187	1.3393491540632032	-0.05156350057131371	0.7472407484996543	1.471769073196091	0.21825050772629165	0.46760373027071356	0.03243499066961734	0.25733931978286356	0.3865103203366236	-0.19819313084015483	0.24968243471724375	0.33986573971023887	-0.07680468613465477	0.3494881978922994	0.46448368282769725	0.11816039157094459	0.48875162458938576	0.2948403209721461	0.3211416734821741	0.44127813295518276	0.0864511993694727	0.2137176029309349	0.40685598221816704	0.011906479409460635	0.12976157915845526	0.39695177423774375	0.004547850035854945	0.153624361243281	0.37975095013259125	0.04221317749828324	0.21146330144646736	0.05403345032086195	0.5137232309310722	0.11784038518831681	-0.03144431078729289	0.5922315481255277	0.29418975027466987	-0.021944603597048785	0.4398815953390347	0.27288142036663837	0.023422609494307637	0.3439521427459914	0.20876127344511392	-0.025683369714679938	0.36029646620058803	0.22752686278076292	0.004186132264256036	0.33523648192759986	0.28825964497714684
169	2.816666666666667	0.28204407703461926	0.5322389557315947	0.598184279707209	0.25420375284551594	0.49837061029169233	0.951005063978715	0.23215621017612417	0.5571792790816611	1.3245239950048142	0.2016632218413693	0.314323309843351	1.2663766869512596	0.2334998340215608	0.37376468924543627	1.3161293848714288	0.23625426295840402	0.6551210819382655	1.4257557519011783	0.06531117805926415	0.5148054639798275	0.5937107907092518	0.055022100634130634	0.433494239778794	0.9228804296328709	0.010436151880302377	0.6054453311215239	1.377035534927503	0.09873203883910801	0.3531128188841213	1.2877788296602164	0.017368434169857994	0.4310304865737119	1.3398531720283473	-0.05130544788173626	0.7615906233764814	1.4874435661096	0.21815033824183766	0.4671077308039322	0.03987889406841278	0.25615770340398214	0.39715649879379317	-0.1940342077106754	0.24989337229776057	0.33939255987295075	-0.07319316005311478	0.3497799223457316	0.4535890892351309	0.11698000315030395	0.4886358096786595	0.29622281103551446	0.32548325910742953	0.4417163711548386	0.08636177349155774	0.21723606756798872	0.40722805340998136	0.010930464963591527	0.13886461277344378	0.4072812341390262	-0.003537106154126108	0.15976121964926432	0.4028053198410233	0.018503921471119372	0.2124054479324097	0.05414792563057486	0.5137870040831337	0.11800228891651306	-0.01610200344223828	0.5598029134490695	0.2751550328119399	-0.031563025454635234	0.4550439780234913	0.2731671689970195	-0.008014339691851644	0.391694810953392	0.2150056467527401	-0.02552544337120448	0.3606713499853035	0.21650641532774315	-0.011811952987517136	0.33729175726338273	0.27809009274734225
170	2.8333333333333335	0.2798118069682867	0.515544392612053	0.6060954316642995	0.2532378807805979	0.4981253520177514	0.9552406901662561	0.23205928622243996	0.5572508874535353	1.324661582722571	0.18696164128976506	0.336567803757606	1.281487588156153	0.23291334738566186	0.3744615240322158	1.3169988139962685	0.23747290222834475	0.6525753998303656	1.429792122689028	0.0525831982523095	0.5237774171895554	0.6066833638509541	0.05727955193865863	0.41973610156873137	0.9216685723146382	0.0068276890411371055	0.6023229831860853	1.3765274383250654	0.08469603507020675	0.36056770149619954	1.2991575105455746	0.009704578930082725	0.4224586694333326	1.3417300944794557	-0.055006696634303756	0.745712536366997	1.4875732903645589	0.2208078556541504	0.4726683448087681	0.05149327797393537	0.257307896688802	0.38588906601873124	-0.18419422089851414	0.2526215921684302	0.34247898415223427	-0.06564816567261915	0.34988385589408416	0.4545258708331892	0.12065437890746585	0.48830244591335936	0.29580388299268784	0.33225698087755134	0.44499464607828404	0.08824362939828087	0.22382241431298702	0.42281660729536885	0.015318467721613773	0.1473403287885791	0.4144083409340166	-0.002281992032607125	0.16472974920329228	0.4124598063699407	0.021595415753910503	0.21637757443222982	0.05702431452108416	0.5184398232030686	0.12634918857748667	-0.006142234490772331	0.5741816809865239	0.2821292064398406	-0.03364351229926238	0.4635966459433044	0.2781761223401311	-0.02020826437679868	0.4131076681421163	0.21750020771238693	-0.03758562869305601	0.3652150830559787	0.21816286455155295	-0.006130335830616381	0.3454310815845836	0.27972022769693766
171	2.85	0.2805162350507444	0.5015662766889446	0.6059114512177172	0.2537971070613242	0.49671174994869866	0.9589981824764673	0.2318282560350974	0.5438880425934939	1.3218616552561495	0.18603566777918035	0.3240827960382615	1.2778089123816017	0.22081259699723163	0.38656744619092365	1.3272978231686037	0.2301338068912913	0.6479344402285191	1.4292608277902916	0.05258314149709478	0.523455316474092	0.6068016376636199	0.05715755641971337	0.4193221211159642	0.9351300249631402	0.011225628369090595	0.6038712772050202	1.3808572192021786	0.09434173221179175	0.3470676353095713	1.2895132223997783	0.00970454984098939	0.4207489787839641	1.3396390805555143	-0.05276651946606441	0.7487987001950903	1.4890469313416894	0.22901992518563127	0.46237339442589087	0.05754123285490948	0.2565672113210189	0.3969014493924841	-0.1767517349037088	0.2524983251248437	0.3433040029011702	-0.06166889310631454	0.3570203171303356	0.4558371407446443	0.13468104983303	0.4944832311344082	0.2977080046019897	0.3393810622646357	0.44527292056248297	0.08796568533152736	0.22742036106492974	0.42163772593920945	0.03392473656856342	0.15585396994524617	0.41401344420699987	0.006404053161923959	0.17037937743319284	0.40894173452167504	0.01882067847216584	0.22654970944070515	0.06925833488343054	0.5125915369644023	0.12870830769653233	0.027372279173908082	0.5108304579188134	0.2738651643952341	-0.033143077623749045	0.46451029560624735	0.2696424711842461	-0.025029064601826398	0.4361216129357695	0.21896562470468484	-0.03429414540896672	0.3709484102835409	0.21155858405861053	-0.03077628251261722	0.3774977207461416	0.28001655482763466
172	2.8666666666666667	0.2677139695563442	0.5110205369387948	0.6184556635937033	0.26381306636755447	0.471744549471674	0.9476960006905331	0.23329075793498943	0.5430192965788083	1.3171378564044847	0.20167822118810855	0.3146250420291231	1.2760780570989791	0.22817586843436902	0.38778895337897834	1.3329585005428044	0.24714157163767733	0.6240984247986676	1.4103220640221419	0.05083573739464316	0.5261391707437424	0.6245071102108548	0.056244795035682735	0.41877491536898787	0.9395104385348514	0.004301777224689312	0.5972261009910395	1.3786778443438863	0.09818893573250323	0.3500198482783351	1.2951468916148037	0.009955203451552786	0.41925790909266325	1.3391193242815216	-0.039423346083799264	0.7529184344684323	1.4811170167094185	0.2311990872171046	0.47786955568746864	0.07058008834043915	0.25610830516811145	0.39697758155989415	-0.17295986275506192	0.2488705928439034	0.34121988281548143	-0.05150965698735632	0.35688100334552536	0.4680438389849868	0.14403438802664098	0.4951329217380727	0.28665302545927857	0.3516411390148895	0.4457947749474444	0.07760746512150109	0.22859548803419089	0.4322133634922986	0.04586809109198911	0.16760631509025375	0.42657716856615524	0.011775118487205456	0.17172979493165416	0.4222867679128534	0.01378858673544705	0.22380931450978173	0.07209879023035141	0.5180863292421187	0.1329024711857597	0.049184809298858906	0.49392187567896667	0.31793154710604016	-0.021155319790578303	0.457294634878228	0.2697970016858626	-0.030668801932242966	0.46177740482856194	0.2142068651061591	-0.044721451907825734	0.38904431744596635	0.20280980449441596	-0.03824554597660559	0.391977927798102	0.2621344144411471
